<svg width="16" height="16" viewBox="0 0 16 16" fill="none" xmlns="http://www.w3.org/2000/svg">
<g clip-path="url(#clip0_4350_22427)">
<path fill-rule="evenodd" clip-rule="evenodd" d="M3.33325 3.33334C3.33325 3.88562 2.88554 4.33334 2.33325 4.33334C1.78097 4.33334 1.33325 3.88562 1.33325 3.33334C1.33325 2.78105 1.78097 2.33334 2.33325 2.33334C2.88554 2.33334 3.33325 2.78105 3.33325 3.33334ZM2.33325 9C2.88554 9 3.33325 8.55229 3.33325 8C3.33325 7.44772 2.88554 7 2.33325 7C1.78097 7 1.33325 7.44772 1.33325 8C1.33325 8.55229 1.78097 9 2.33325 9ZM2.33325 13.6667C2.88554 13.6667 3.33325 13.219 3.33325 12.6667C3.33325 12.1144 2.88554 11.6667 2.33325 11.6667C1.78097 11.6667 1.33325 12.1144 1.33325 12.6667C1.33325 13.219 1.78097 13.6667 2.33325 13.6667ZM5.33325 2.66667C4.96506 2.66667 4.66659 2.96515 4.66659 3.33334C4.66659 3.70153 4.96506 4 5.33325 4H13.9999C14.3681 4 14.6666 3.70153 14.6666 3.33334C14.6666 2.96515 14.3681 2.66667 13.9999 2.66667H5.33325ZM5.33325 7.33334C4.96506 7.33334 4.66659 7.63181 4.66659 8C4.66659 8.36819 4.96506 8.66667 5.33325 8.66667H13.9999C14.3681 8.66667 14.6666 8.36819 14.6666 8C14.6666 7.63181 14.3681 7.33334 13.9999 7.33334H5.33325ZM5.33325 12C4.96506 12 4.66659 12.2985 4.66659 12.6667C4.66659 13.0349 4.96506 13.3333 5.33325 13.3333H13.9999C14.3681 13.3333 14.6666 13.0349 14.6666 12.6667C14.6666 12.2985 14.3681 12 13.9999 12H5.33325Z" fill="black"/>
</g>
<defs>
<clipPath id="clip0_4350_22427">
<rect width="16" height="16" fill="white"/>
</clipPath>
</defs>
</svg>
